<svg width="96" height="96" viewBox="0 0 96 96" role="img" xmlns="http://www.w3.org/2000/svg">
<title>ATLAS mark</title>
<desc>A blue turnstile next to an upside-down A.</desc>
<style>
  .ts { stroke:#2563eb; stroke-width:9; stroke-linecap:round; fill:none; }
  .a  { fill:#111111; }
  @media (prefers-color-scheme:dark){ .ts{stroke:#60a5fa;} .a{fill:#f5f5f5;} }
</style>
<path class="ts" d="M14 25 V70 M14 47.5 H36"/>
<g transform="rotate(180 64 47.6)"><path class="a" d="M42.312530517578125 70.0Q41.812530517578125 70.0 41.531280517578125 69.515625Q41.250030517578125 69.03125 41.250030517578125 68.40625Q41.250030517578125 67.6875 41.484405517578125 67.5Q41.718780517578125 67.3125 42.375030517578125 67.25Q43.156280517578125 67.15625 44.078155517578125 67.13769435882568Q45.000030517578125 67.11913871765137 45.828155517578125 66.6671779449672Q46.656280517578125 66.21521717228302 47.156280517578125 64.84375L61.59772872924805 24.96875H67.03146362304688L81.11355209350586 64.84375Q81.61941337585449 66.22461128234863 82.44656658172607 66.67773628234863Q83.27371978759766 67.13086128234863 84.20731735229492 67.14355564117432Q85.14091491699219 67.15625 85.89091491699219 67.25Q86.54716491699219 67.3125 86.78153991699219 67.5Q87.01591491699219 67.6875 87.01591491699219 68.40625Q87.01591491699219 68.75 86.75028991699219 69.375Q86.48466491699219 70.0 85.95341491699219 70.0H69.58936253201914Q69.05669975280762 70.0 68.79107475280762 69.375Q68.52544975280762 68.75 68.52544975280762 68.40625Q68.52544975280762 67.375 69.55669975280762 67.25Q71.45122718811035 67.15625 72.61528205871582 67.09668064117432Q73.77933692932129 67.03711128234863 73.77933692932129 66.32285493214926Q73.77933692932129 66.10547256469727 73.68558692932129 65.875L69.44925308227539 53.36528205871582L71.26564025878906 54.66214179992676L53.54497718811035 54.656280517578125L55.335975646972656 53.30666923522949L51.062530517578125 65.875Q50.99416923522949 66.04297256469727 50.99416923522949 66.25586128234863Q50.99416923522949 67.03125 52.32522487640381 67.08105564117432Q53.656280517578125 67.13086128234863 55.562530517578125 67.25293064117432Q56.593780517578125 67.375 56.593780517578125 68.40625Q56.593780517578125 68.75 56.328155517578125 69.375Q56.062530517578125 70.0 55.531280517578125 70.0ZM55.41411590576172 53.11324691772461 54.52742385864258 51.97464179992676H70.31055641174316L69.36719512939453 53.11910820007324L62.76372718811035 32.8886661529541Z"/></g>
</svg>
